<?xml version="1.0" encoding="UTF-8"?>
<svg id="Lager_2" xmlns="http://www.w3.org/2000/svg" viewBox="0 0 376.68 170" fill="#f6d749">
  <g id="Lager_1-2" data-name="Lager_1">
    <g id="BACK">
      <g>
        <path class="cls-1" d="M297.18,31c32.81,0,59.5,26.69,59.5,59.5s-26.69,59.5-59.5,59.5-59.5-26.69-59.5-59.5,26.69-59.5,59.5-59.5M297.18,11c-43.91,0-79.5,35.59-79.5,79.5s35.59,79.5,79.5,79.5,79.5-35.59,79.5-79.5S341.09,11,297.18,11h0Z"/>
        <path class="cls-1" d="M314.61,47.69c2.55,0,4.95.31,7.19.93,2.24.62,4.19,1.72,5.84,3.31,1.66,1.59,2.96,3.79,3.93,6.62.96,2.83,1.45,6.45,1.45,10.86,0,1.31-.09,2.81-.26,4.5-.17,1.69-.62,3.35-1.35,4.97-.72,1.62-1.81,3.14-3.26,4.55-1.45,1.41-3.48,2.53-6.1,3.36,4.34.69,7.74,2.69,10.19,6,2.45,3.31,3.67,7.9,3.67,13.76,0,1.93-.17,4.21-.52,6.83-.35,2.62-1.26,5.1-2.74,7.45-1.48,2.34-3.74,4.33-6.78,5.95-3.04,1.62-7.21,2.43-12.52,2.43h-51.52V47.69h52.76ZM281.71,65.69v13.76h25.14c2.41,0,4.02-.48,4.81-1.45.79-.96,1.19-2.76,1.19-5.38,0-1.59-.12-2.84-.36-3.78-.24-.93-.62-1.62-1.14-2.07-.52-.45-1.14-.74-1.86-.88-.72-.14-1.6-.21-2.64-.21h-25.14ZM281.71,96.52v14.69h27.41c1.1,0,2.08-.07,2.95-.21.86-.14,1.59-.45,2.17-.93.59-.48,1.03-1.21,1.34-2.17.31-.96.47-2.31.47-4.03,0-1.86-.21-3.28-.62-4.24-.41-.96-.97-1.69-1.66-2.17-.69-.48-1.43-.76-2.22-.83-.79-.07-1.57-.1-2.33-.1h-27.52Z"/>
      </g>
      <path class="cls-1" d="M154.49,44.77h-35.42v-27.4c0-14.43-16.6-22.55-27.99-13.69L6.7,69.31c-8.93,6.94-8.93,20.44,0,27.38l84.39,65.63c11.39,8.86,27.99.74,27.99-13.69v-27.4h35.42c10.65,0,19.28-8.63,19.28-19.28v-37.9c0-10.65-8.63-19.28-19.28-19.28Z"/>
    </g>
  </g>
</svg>