<?xml version="1.0" encoding="UTF-8"?>
<svg id="Lager_2" xmlns="http://www.w3.org/2000/svg" viewBox="0 0 415.11 159" fill="#f6d749">
  <g id="Lager_1-2" data-name="Lager_1">
    <g id="OK">
      <g>
        <path class="cls-1" d="M79.5,20c32.81,0,59.5,26.69,59.5,59.5s-26.69,59.5-59.5,59.5-59.5-26.69-59.5-59.5,26.69-59.5,59.5-59.5M79.5,0C35.59,0,0,35.59,0,79.5s35.59,79.5,79.5,79.5,79.5-35.59,79.5-79.5S123.41,0,79.5,0h0Z"/>
        <path class="cls-1" d="M122.95,118.21h-23.17l-5.9-16.03h-28.97l-5.69,16.03h-23.17l30.1-81.52h26.79l30,81.52ZM70.29,84.38h18.41l-9.21-27.52-9.21,27.52Z"/>
      </g>
      <g>
        <path class="cls-1" d="M246.32,22.37c9.83,0,18.09.61,24.79,1.84,6.69,1.23,12.11,3.76,16.25,7.58,4.14,3.82,7.12,9.22,8.95,16.18,1.82,6.96,2.73,16.18,2.73,27.65,0,10.56-.57,19.44-1.71,26.63-1.14,7.19-3.48,13.02-7.03,17.48-3.55,4.46-8.63,7.65-15.23,9.56-6.6,1.91-15.36,2.87-26.29,2.87-6.74,0-12.77-.21-18.1-.62-5.33-.41-10.04-1.25-14.13-2.53-4.1-1.27-7.6-3.12-10.52-5.53-2.92-2.41-5.28-5.58-7.1-9.49-1.82-3.91-3.16-8.72-4.03-14.41-.87-5.69-1.3-12.5-1.3-20.42s.27-14.22.82-20.01c.55-5.78,1.52-10.77,2.94-14.95,1.41-4.19,3.37-7.69,5.87-10.52,2.5-2.82,5.71-5.07,9.63-6.76,3.91-1.68,8.62-2.87,14.13-3.55,5.51-.68,11.95-1.02,19.32-1.02ZM276.63,77.41c0-8.19-.32-14.61-.96-19.26-.64-4.64-2.07-8.08-4.3-10.31-2.23-2.23-5.53-3.62-9.9-4.17-4.37-.55-10.29-.82-17.75-.82-6.37,0-11.4.41-15.09,1.23-3.69.82-6.44,2.48-8.26,4.98-1.82,2.51-2.98,6.01-3.48,10.52-.5,4.51-.75,10.45-.75,17.82,0,8.1.29,14.46.89,19.05.59,4.6,1.98,8.01,4.17,10.24,2.19,2.23,5.46,3.62,9.83,4.17s10.33.82,17.89.82c6.46,0,11.56-.41,15.29-1.23,3.73-.82,6.51-2.46,8.33-4.92,1.82-2.46,2.96-5.94,3.41-10.45.45-4.51.68-10.4.68-17.69Z"/>
        <path class="cls-1" d="M383.98,23.46h28.82l-49.03,52.17,51.35,55.45h-29.36l-48.34-54.49v54.49h-22.53V23.46h22.53v51.21l46.57-51.21Z"/>
      </g>
    </g>
  </g>
</svg>